<svg xmlns="http://www.w3.org/2000/svg">
  

	-
  <symbol id="plyr-captions-off" viewBox="0 0 18 18">
    <path d="M1 1c-0.6 0-1 0.4-1 1v11c0 0.6 1 1 1h4.6l2.7 2.7c0.2 0 0.5-0.1-0.3l2.7-2.7H17c0.6 0 1-0.4 1-1V2c0-0.6-0.4-1-1-1H1zm4.52 10.15c1.99 0 3.01-1.32 3.28-2.41l-1.29-0.39c-0.19-0.78 1.45-1.99 1.45-1.14 0-2.2-0.83-2.2-2.34 0-1.61 1.12-2.37 2.18-2.37 1.23 0 1.78 1.95 1.43l1.3-0.41C8.47 4.96 7.46 3.76 5.5 3.76c-1.9 0-3.61 1.44-3.61 3.7 0 2.26 1.65 3.69 3.63 3.69zm7.57 0c1.99 0 3.01-1.32 3.28-2.41l-1.29-0.39c-0.19-0.78 1.45-1.99 1.45-1.14 0-2.2-0.83-2.2-2.34 0-1.61 1.12-2.37 2.18-2.37 1.23 0 1.78 1.95 1.43l1.3-0.41c-0.28-1.15-1.29-2.35-3.25-2.35-1.9 0-3.61 1.44-3.61 3.7 0 2.26 1.65 3.69 3.63 3.69z" fill-rule="evenodd" fill-opacity=".5"/>
  </symbol>
  <symbol id="plyr-captions-on" viewBox="0 0 18 18">
    <path d="M1 1c-0.6 0-1 0.4-1 1v11c0 0.6 1 1 1h4.6l2.7 2.7c0.2 0 0.5-0.1-0.3l2.7-2.7H17c0.6 0 1-0.4 1-1V2c0-0.6-0.4-1-1-1H1zm4.52 10.15c1.99 0 3.01-1.32 3.28-2.41l-1.29-0.39c-0.19-0.78 1.45-1.99 1.45-1.14 0-2.2-0.83-2.2-2.34 0-1.61 1.12-2.37 2.18-2.37 1.23 0 1.78 1.95 1.43l1.3-0.41C8.47 4.96 7.46 3.76 5.5 3.76c-1.9 0-3.61 1.44-3.61 3.7 0 2.26 1.65 3.69 3.63 3.69zm7.57 0c1.99 0 3.01-1.32 3.28-2.41l-1.29-0.39c-0.19-0.78 1.45-1.99 1.45-1.14 0-2.2-0.83-2.2-2.34 0-1.61 1.12-2.37 2.18-2.37 1.23 0 1.78 1.95 1.43l1.3-0.41c-0.28-1.15-1.29-2.35-3.25-2.35-1.9 0-3.61 1.44-3.61 3.7 0 2.26 1.65 3.69 3.63 3.69z" fill-rule="evenodd"/>
  </symbol>
  <symbol id="plyr-enter-fullscreen" viewBox="0 0 18 18">
    <path d="M7.075 10.126l-5.179 5.175v-3.813c0-0.275-0.226-0.501-0.502-0.501 -0.278 0-0.502 0.226-0.502 0.501v5.021l0 0c0 0.008 0.004 0.014 0.004 0.021 0.005 0.122 0.054 0.231 0.13 0.316 0.006 0.005 0.003 0.015 0.009 0.021 0.006 0.006 0.015 0.004 0.021 0.009C1.14 16.952 1.25 17 1.373 17.006c0.007 0.001 0.013 0.004 0.021 0.004h0 5.024c0.277 0 0.502-0.225 0.502-0.502s-0.225-0.501-0.502-0.501H2.601l5.18-5.176c0.195-0.195 0.195-0.51 0-0.705C7.585 9.932 7.27 9.932 7.075 10.126zM16.963 1.428c-0.005-0.122-0.053-0.232-0.13-0.316 -0.005-0.007-0.003-0.016-0.009-0.021s-0.016-0.003-0.021-0.009c-0.084-0.077-0.193-0.124-0.314-0.13 -0.01 0-0.015-0.005-0.022-0.005h-5.024c-0.277 0-0.502 0.225-0.502 0.502s0.225 0.502 0.502 0.502h3.816l-5.18 5.175c-0.195 0.195-0.195 0.511 0 0.706 0.195 0.194 0.511 0.194 0.706 0l5.179-5.176v3.813c0 0.276 0.225 0.501 0.503 0.501 0.276 0 0.502-0.225 0.502-0.501V1.448C16.968 1.44 16.965 1.436 16.963 1.428z"/>
  </symbol>
  <symbol id="plyr-exit-fullscreen" viewBox="0 0 18 18">
    <path d="M1.743 16.864l5.179-5.175v3.813c0 0.275 0.226 0.501 0.502 0.501 0.278 0 0.502-0.226 0.502-0.501v-5.021l0 0c0-0.008-0.004-0.014-0.004-0.021 -0.005-0.122-0.054-0.231-0.13-0.316 -0.006-0.005-0.003-0.015-0.009-0.021 -0.006-0.006-0.015-0.004-0.021-0.009C7.678 10.038 7.568 9.99 7.445 9.984 7.438 9.983 7.432 9.98 7.425 9.98h0H2.4c-0.277 0-0.502 0.225-0.502 0.502s0.225 0.501 0.502 0.501h3.816l-5.18 5.176c-0.195 0.195-0.195 0.51 0 0.705C1.232 17.059 1.548 17.059 1.743 16.864zM9.936 7.495c0.006 0.122 0.053 0.232 0.131 0.316 0.004 0.007 0.002 0.016 0.008 0.021s0.016 0.003 0.021 0.009c0.084 0.077 0.193 0.124 0.314 0.13 0.01 0 0.016 0.005 0.023 0.005h5.023c0.277 0 0.502-0.225 0.502-0.502s-0.225-0.502-0.502-0.502h-3.816l5.18-5.175c0.195-0.195 0.195-0.511 0-0.706 -0.195-0.194-0.51-0.194-0.705 0l-5.18 5.176V2.454c0-0.276-0.225-0.501-0.502-0.501S9.932 2.178 9.932 2.454v5.021C9.932 7.482 9.934 7.487 9.936 7.495z"/>
  </symbol>
  <symbol id="plyr-fast-forward" viewBox="0 0 18 18">
    <path d="M7.875 7.171L0 1v16l7.875-6.171V17L18 9 7.875 1z"/>
  </symbol>
  <symbol id="plyr-muted" viewBox="0 0 18 18">
    <path d="M2.115 5.796c-0.582 0-1.055 0.483-1.055 1.079v4.313c0 0.596 0.473 1.079 1.055 1.079h2.109l5.271 3.234V2.562L4.225 5.796H2.115zM8.441 13.884l-4.217-2.696H3.697 2.642c-0.29 0-0.526-0.241-0.526-0.538V7.414c0-0.298 0.236-0.539 0.526-0.539h1.056 0.527l4.217-2.697V13.884zM13.602 9.004l1.576 1.576 -0.709 0.709 -1.576-1.576 -1.658 1.66 -0.74-0.74 1.66-1.658 -1.576-1.576 0.709-0.709 1.576 1.576 1.644-1.645 0.739 0.739L13.602 9.004z"/>
  </symbol>
  <symbol id="plyr-pause" viewBox="0 0 18 18">
    <path d="M6 1H3c-0.6 0-1 0.4-1 1v14c0 0.6 1 1 1h3c0.6 0 1-0.4 1-1V2c0-0.6-0.4-1-1-1zM12 1c-0.6 0-1 0.4-1 1v14c0 0.6 1 1 1h3c0.6 0 1-0.4 1-1V2c0-0.6-0.4-1-1-1h-3z"/>
  </symbol>
  <symbol id="plyr-play" viewBox="0 0 18 18">
    <path d="M13.183 7.971v44.801l35.229-22.4L13.183 7.971zM16.386 13.304l26.471 17.067L16.386 47.438V13.304z"/>
  </symbol>
  <symbol id="plyr-back" viewBox="0 0 18 18">
    <path d="M22.795 30.313l18.018-16.483c0.593-0.591 0.593-1.548 0-2.142 -0.593-0.59-1.555-0.59-2.148 0L19.666 29.07c-0.081 0.056-0.157 0.146-0.229 0.217 -0.314 0.314-0.481 0.621-0.463 1.031 -0.015 0.406 0.167 0.719 0.479 1.032 0.068 0.068 0.128 0.147 0.205 0.2l19.006 17.387c0.592 0.592 1.553 0.592 2.146 0 0.594-0.593 0.594-1.552 0-2.144L22.795 30.313z"/>
  </symbol>
  <symbol id="plyr-bookmark" viewBox="0 0 18 18">
    <path d="M5.281 16.909L5.281 16.909c-0.269-0.001-0.582-0.187-0.582-0.711V2.429c0-0.707 0.246-1.009 0.4-1.13 0.126-0.141 0.439-0.381 1.11-0.381h5.61c0.724 0 1.055 0.252 1.178 0.382 0.145 0.119 0.402 0.438 0.402 1.199v13.61c0 0.72-0.494 0.756-0.593 0.756 -0.264 0-0.559-0.165-0.957-0.535l-2.801-2.6 -2.981 2.769C5.771 16.774 5.514 16.909 5.281 16.909zM5.534 1.91C5.537 1.923 5.449 2.06 5.449 2.429v13.615c0.032-0.025 0.067-0.057 0.107-0.094l3.492-3.243 3.312 3.074c0.124 0.114 0.219 0.19 0.289 0.24V2.5c0-0.485-0.134-0.623-0.136-0.625l-0.081-0.082c-0.012-0.003-0.173-0.125-0.613-0.125h-5.61c-0.425 0-0.548 0.127-0.549 0.128L5.604 1.893 5.534 1.91z"/>
  </symbol>
  <symbol id="plyr-restart" viewBox="0 0 18 18">
    <path d="M9.7 1.2l0.7 6.4 2.1-2.1c1.9 1.9 1.9 5.1 0 7-0.9 1-2.2 1.5-3.5 1.5-1.3 0-2.6-0.5-3.5-1.5-1.9-1.9-1.9-5.1 0-7 0.6-0.6 1.4-1.1 2.3-1.3l-0.6-1.9C6 2.6 4.9 3.2 4 4.1 1.3 6.8 1.3 11.2 4 14c1.3 1.3 3.1 2 4.9 2 1.9 0 3.6-0.7 4.9-2 2.7-2.7 2.7-7.1 0-9.9L16 1.9l-6.3-0.7z"/>
  </symbol>
  <symbol id="plyr-rewind" viewBox="0 0 18 18">
    <path d="M10.125 1L0 9l10.125 8v-6.171L18 17V1l-7.875 6.171z"/>
  </symbol>
  <symbol id="plyr-volume" viewBox="0 0 18 18">
    <path d="M10.582 1.602V2.68c2.988 0.516 5.271 3.158 5.271 6.362 0 3.204-2.283 5.846-5.271 6.36v1.079c3.572-0.527 6.326-3.641 6.326-7.439C16.908 5.242 14.154 2.129 10.582 1.602z"/>
    <path d="M13.729 9.032c0-1.9-1.377-3.457-3.163-3.72V6.39c1.204 0.25 2.109 1.337 2.109 2.642 0 1.303-0.905 2.39-2.109 2.639v1.08C12.353 12.488 13.729 10.931 13.729 9.032zM2.131 5.796c-0.583 0-1.055 0.483-1.055 1.079v4.313c0 0.596 0.472 1.079 1.055 1.079H4.24l5.272 3.234V2.562L4.24 5.796H2.131zM8.458 13.884L4.24 11.188H3.712 2.657c-0.291 0-0.526-0.241-0.526-0.538V7.414c0-0.298 0.236-0.539 0.526-0.539h1.055H4.24l4.218-2.697V13.884z"/>
  </symbol>
  <symbol id="plyr-fly" viewBox="0 0 18 18">
    <path d="M17.128 2.903c-0.002-0.068-0.021-0.127-0.052-0.187 -0.009-0.019-0.002-0.042-0.015-0.06 -0.007-0.008-0.017-0.007-0.022-0.013 -0.008-0.01-0.008-0.022-0.014-0.03 -0.061-0.062-0.136-0.1-0.215-0.114 -0.009-0.001-0.014 0.003-0.021 0.002 -0.072-0.009-0.147-0.005-0.214 0.026L1.051 9.569C0.894 9.642 0.796 9.811 0.812 9.988c0.014 0.179 0.137 0.327 0.307 0.369l3.512 0.881 1.707 3.767c0.012 0.024 0.034 0.037 0.05 0.058 0.007 0.013 0.003 0.03 0.014 0.041 0.015 0.021 0.04 0.031 0.061 0.046 0.016 0.014 0.029 0.027 0.05 0.038 0.061 0.034 0.124 0.059 0.192 0.059 0.015 0 0.029-0.001 0.045-0.003 0.077-0.009 0.141-0.047 0.198-0.093 0.007-0.006 0.018-0.003 0.025-0.009l2.693-2.455 2.66 0.903c0.198 0.063 0.416-0.034 0.498-0.231l4.287-10.283c0.008-0.025 0.002-0.052 0.007-0.078C17.126 2.964 17.128 2.937 17.128 2.903zM7.145 11.17c-0.007 0.005-0.004 0.015-0.011 0.021 -0.053 0.057-0.099 0.122-0.115 0.202l-0.453 2.141 -1.132-2.502 6.989-4.711L7.145 11.17zM12.405 5.332L4.841 10.43 2.473 9.837 12.405 5.332zM7.364 13.67l0.348-1.646 1.061 0.359L7.364 13.67zM12.229 12.677l-4.021-1.366 7.441-6.838L12.229 12.677z"/>
  </symbol>
  <symbol id="plyr-share" viewBox="0 0 18 18">
    <path d="M11.89 12.37c-0.142 0.145-0.264 0.304-0.368 0.473L6.863 9.941C6.986 9.626 7.056 9.281 7.056 8.92c0-0.36-0.07-0.705-0.193-1.021l4.66-2.879c0.479 0.771 1.318 1.286 2.273 1.286 1.487 0 2.697-1.242 2.697-2.767s-1.21-2.766-2.697-2.766S11.1 2.014 11.1 3.539c0 0.347 0.065 0.679 0.18 0.985L6.613 7.407C6.131 6.654 5.301 6.155 4.359 6.155c-1.488 0-2.697 1.24-2.697 2.765 0 1.525 1.209 2.767 2.697 2.767 0.942 0 1.771-0.499 2.254-1.253l4.666 2.904c-0.116 0.312-0.18 0.645-0.18 0.987 0 0.739 0.281 1.434 0.79 1.956 0.526 0.539 1.217 0.809 1.907 0.809 0.691 0 1.381-0.27 1.907-0.809 0.509-0.522 0.79-1.217 0.79-1.956 0-0.738-0.281-1.434-0.79-1.955C14.651 11.291 12.94 11.291 11.89 12.37zM13.796 1.327c1.19 0 2.157 0.993 2.157 2.212 0 1.22-0.967 2.213-2.157 2.213 -1.189 0-2.157-0.993-2.157-2.213C11.639 2.319 12.606 1.327 13.796 1.327zM4.359 11.133c-1.189 0-2.158-0.993-2.158-2.213s0.968-2.212 2.158-2.212c1.189 0 2.158 0.993 2.158 2.212S5.548 11.133 4.359 11.133zM15.321 15.891c-0.841 0.861-2.209 0.861-3.051 0 -0.407-0.419-0.632-0.975-0.632-1.565 0-0.59 0.225-1.146 0.632-1.564 0.421-0.431 0.974-0.646 1.525-0.646 0.554 0 1.105 0.216 1.526 0.646 0.407 0.418 0.631 0.975 0.631 1.564C15.953 14.916 15.729 15.472 15.321 15.891z"/>
  </symbol>
  <symbol id="plyr-addtag" viewBox="0 0 18 18">
    <path d="M10.557 10.8c-1.469 0-2.665 1.171-2.665 2.608 0 1.439 1.196 2.609 2.665 2.609 1.467 0 2.662-1.17 2.662-2.609C13.219 11.971 12.023 10.8 10.557 10.8zM10.557 15.438c-1.141 0-2.073-0.909-2.073-2.029 0-1.118 0.932-2.029 2.073-2.029 1.143 0 2.07 0.911 2.07 2.029C12.627 14.528 11.699 15.438 10.557 15.438zM12.035 13.408c0 0.16-0.131 0.291-0.295 0.291h-0.889v0.87c0 0.159-0.133 0.289-0.295 0.289 -0.164 0-0.296-0.13-0.296-0.289v-0.87H9.373c-0.164 0-0.295-0.131-0.295-0.291 0-0.159 0.132-0.289 0.295-0.289h0.888v-0.87c0-0.16 0.132-0.289 0.296-0.289 0.162 0 0.295 0.129 0.295 0.289v0.87h0.889C11.904 13.119 12.035 13.249 12.035 13.408zM17.15 9.288c0.002 0.078-0.029 0.153-0.086 0.208l-2.736 2.68c-0.117 0.113-0.305 0.113-0.418 0 -0.117-0.113-0.117-0.296 0-0.41l2.648-2.594L16.48 2.688 9.864 2.613 1.791 10.52l5.413 5.303c0.115 0.114 0.115 0.297 0 0.41 -0.059 0.057-0.134 0.085-0.209 0.085 -0.076 0-0.152-0.028-0.209-0.085l-5.623-5.509c-0.055-0.054-0.086-0.127-0.086-0.204s0.031-0.151 0.086-0.204l8.373-8.198C9.59 2.062 9.668 2.029 9.747 2.032l7.03 0.079c0.16 0.002 0.291 0.129 0.293 0.287L17.15 9.288zM15.279 5.294c0-0.799-0.664-1.449-1.479-1.449 -0.816 0-1.48 0.65-1.48 1.449 0 0.799 0.664 1.45 1.48 1.45C14.615 6.744 15.279 6.093 15.279 5.294zM13.801 6.164c-0.49 0-0.889-0.39-0.889-0.87 0-0.479 0.398-0.87 0.889-0.87 0.488 0 0.887 0.39 0.887 0.87C14.688 5.774 14.289 6.164 13.801 6.164z"/>
  </symbol>
  <symbol id="plyr-copy" viewBox="0 0 18 18">
    <path d="M11.327 3.59H3.818c-0.704 0-1.277 0.555-1.277 1.238v10.444c0 0.684 0.573 1.238 1.277 1.238h7.509c0.705 0 1.277-0.555 1.277-1.238V4.828C12.601 4.145 12.028 3.59 11.327 3.59zM11.708 15.271c0 0.205-0.173 0.371-0.385 0.371H3.815c-0.212 0-0.384-0.166-0.384-0.371V4.828c0-0.206 0.171-0.372 0.384-0.372h7.508c0.212 0 0.385 0.167 0.385 0.372V15.271zM14.199 0.851H6.69c-0.705 0-1.277 0.555-1.277 1.238 0 0.241 0.198 0.433 0.447 0.433 0.248 0 0.447-0.192 0.447-0.433 0-0.205 0.172-0.372 0.384-0.372h7.509c0.212 0 0.384 0.167 0.384 0.372v10.445c0 0.205-0.172 0.372-0.384 0.372 -0.248 0-0.446 0.191-0.446 0.433s0.198 0.433 0.446 0.433c0.705 0 1.277-0.555 1.277-1.237V2.089C15.477 1.406 14.904 0.851 14.199 0.851z"/>
  </symbol>
  <symbol id="plyr-bookback" viewBox="0 0 18 18">
    <path d="M16.73 8.702H1.693L7.468 3.12c0.096-0.093 0.096-0.245 0-0.337 -0.096-0.093-0.252-0.093-0.349 0L0.923 8.771C0.877 8.816 0.851 8.876 0.851 8.94h0c0 0.001 0 0.001 0 0.001 0 0.021 0.007 0.04 0.013 0.06C0.867 9.012 0.866 9.022 0.87 9.032c0.013 0.03 0.032 0.057 0.056 0.079l6.192 5.987c0.049 0.046 0.112 0.069 0.176 0.069 0.063 0 0.126-0.023 0.174-0.069 0.096-0.094 0.096-0.245 0-0.338l-5.772-5.58H16.73c0.137 0 0.248-0.107 0.248-0.239C16.979 8.809 16.867 8.702 16.73 8.702z"/>
  </symbol>
  <symbol id="plyr-comments" viewBox="0 0 18 18">
    <path d="M11.494 9.018H6.445c-0.279 0-0.504 0.226-0.504 0.505 0 0.278 0.225 0.505 0.504 0.505h5.049c0.279 0 0.506-0.227 0.506-0.505C12 9.244 11.773 9.018 11.494 9.018zM12.503 5.991H5.435c-0.278 0-0.504 0.226-0.504 0.504C4.931 6.773 5.157 7 5.435 7h7.068c0.279 0 0.506-0.226 0.506-0.504C13.009 6.217 12.782 5.991 12.503 5.991zM8.97 0.946c-4.461 0-8.078 3.161-8.078 7.063 0 2.229 1.184 4.213 3.03 5.507v3.573l4.136-2.067c0.3 0.03 0.603 0.048 0.912 0.048 4.461 0 8.078-3.161 8.078-7.061C17.048 4.107 13.431 0.946 8.97 0.946zM8.97 14.063c-1.158 0-1.009 0-1.009 0l-3.029 1.513v-2.631c-1.824-1.093-3.029-2.885-3.029-4.935 0-3.344 3.165-6.055 7.068-6.055 3.902 0 7.067 2.71 7.067 6.055C16.037 11.353 12.872 14.063 8.97 14.063z"/>
  </symbol>
</svg>
